<?xml version="1.0" standalone="no"?>
<!DOCTYPE svg PUBLIC "-//W3C//DTD SVG 20010904//EN"
 "http://www.w3.org/TR/2001/REC-SVG-20010904/DTD/svg10.dtd">
<svg version="1.0" xmlns="http://www.w3.org/2000/svg"
 width="66.000000pt" height="70.000000pt" viewBox="0 0 66.000000 70.000000"
 preserveAspectRatio="xMidYMid meet">

<g transform="translate(0.000000,70.000000) scale(0.100000,-0.100000)"
fill="#000000" stroke="none">
<path d="M0 350 l0 -350 330 0 330 0 0 69 c0 67 0 68 -25 64 -13 -3 -27 -14
-31 -25 -3 -10 -17 -23 -30 -28 -17 -7 -24 -17 -24 -35 0 -14 -4 -25 -10 -25
-5 0 -10 11 -10 25 0 20 -5 25 -25 25 -20 0 -25 -5 -25 -25 0 -14 -4 -25 -10
-25 -5 0 -10 11 -10 25 0 20 -5 25 -25 25 -20 0 -25 -5 -25 -25 0 -14 -4 -25
-10 -25 -5 0 -10 11 -10 24 0 14 -10 30 -25 40 -14 9 -25 23 -25 31 0 8 -12
15 -27 17 -36 4 -36 22 0 26 19 2 27 9 27 23 0 14 -7 19 -30 19 -16 0 -30 5
-30 10 0 6 14 10 30 10 23 0 30 5 30 19 0 14 -8 21 -28 23 -35 4 -35 22 1 26
15 2 27 9 27 17 0 7 11 22 25 33 15 12 25 30 25 47 0 15 4 24 10 20 6 -3 10
-17 10 -31 0 -19 5 -24 25 -24 20 0 25 5 25 24 0 14 4 28 10 31 6 4 10 -7 10
-24 0 -26 4 -31 25 -31 21 0 25 5 25 30 0 17 5 30 10 30 6 0 10 -13 10 -29 0
-21 6 -32 21 -36 11 -4 25 -17 31 -30 6 -13 21 -25 34 -28 l24 -4 0 208 0 209
-330 0 -330 0 0 -350z m349 241 l181 -84 0 -38 c0 -22 -4 -39 -10 -39 -5 0
-10 11 -10 25 l0 25 -165 0 -165 0 0 -185 c0 -102 -1 -188 -2 -192 -2 -5 7 -9
20 -11 12 -2 22 -8 22 -13 0 -5 -47 -9 -105 -9 -63 0 -105 4 -105 10 0 6 9 10
20 10 19 0 20 7 20 242 l0 242 52 53 c29 29 55 52 59 51 3 -2 88 -41 188 -87z"/>
<path d="M117 612 c-34 -35 -34 -42 3 -77 l30 -29 0 67 c0 37 -1 67 -3 67 -2
0 -15 -13 -30 -28z"/>
<path d="M180 574 c0 -52 3 -64 13 -57 6 5 34 22 61 38 l49 28 -28 15 c-16 8
-44 21 -62 28 l-33 14 0 -66z"/>
<path d="M275 540 l-50 -30 120 1 120 1 -60 28 c-33 16 -64 29 -70 29 -5 0
-32 -13 -60 -29z"/>
<path d="M80 504 c0 -33 6 -46 35 -74 l35 -34 0 40 c0 33 -6 46 -35 74 l-35
34 0 -40z"/>
<path d="M80 365 l0 -69 35 34 c33 32 34 34 15 47 -11 8 -26 24 -35 36 -14 20
-15 17 -15 -48z"/>
<path d="M112 297 l-31 -32 34 -40 34 -40 1 73 c0 39 -1 72 -3 72 -2 0 -17
-15 -35 -33z"/>
<path d="M80 157 l0 -67 35 0 c33 0 35 2 35 33 0 25 -9 42 -35 67 l-35 34 0
-67z"/>
<path d="M364 307 c-2 -7 -3 -56 -2 -108 l3 -94 105 0 105 0 0 105 0 105 -103
3 c-79 2 -104 0 -108 -11z m119 -59 c-6 -32 -6 -33 14 -15 28 25 43 21 43 -11
0 -20 -11 -38 -36 -60 -41 -37 -44 -38 -44 -16 0 9 -11 25 -25 36 -28 22 -33
56 -10 65 21 8 33 -6 15 -17 -17 -11 -4 -40 20 -48 10 -4 12 6 7 47 -5 40 -3
51 8 51 11 0 13 -8 8 -32z"/>
<path d="M492 208 c-14 -14 -16 -38 -4 -38 14 0 43 36 35 43 -9 10 -17 9 -31
-5z"/>
<path d="M633 263 c-33 -6 -31 -43 2 -43 20 0 25 5 25 25 0 14 -1 24 -2 24 -2
-1 -13 -4 -25 -6z"/>
<path d="M610 181 c0 -12 9 -20 25 -23 21 -4 25 -1 25 18 0 19 -5 24 -25 24
-18 0 -25 -5 -25 -19z"/>
</g>
</svg>
